<?xml version="1.0" encoding="UTF-8" standalone="no"?>
<!DOCTYPE svg PUBLIC "-//W3C//DTD SVG 1.1//EN" "http://www.w3.org/Graphics/SVG/1.1/DTD/svg11.dtd">
<svg version="1.1" xmlns="http://www.w3.org/2000/svg" xmlns:xlink="http://www.w3.org/1999/xlink" preserveAspectRatio="xMidYMid meet" viewBox="0 0 14 14" width="14" height="14"><defs><path d="M0.87 5.25L13.13 5.25L13.13 7L0.87 7L0.87 5.25Z" id="b2Qap0k5k"></path><path d="M5.25 7L7.88 7L7.88 13.82L5.25 13.82L5.25 7Z" id="ai31KXqj"></path><path d="M1.05 5.25L9.63 5.25L9.63 7.88L1.05 7.88L1.05 5.25Z" id="jrefNUkUF"></path><path d="M0.88 5.25L7.88 5.25L7.88 8.75L0.88 8.75L0.88 5.25Z" id="a1o0rnMeBy"></path><path d="M4.38 11.38L8.75 11.38L8.75 14L4.38 14L4.38 11.38Z" id="a1tpSe7C4b"></path><path d="M5.25 10.5L8.75 10.5L8.75 11.38L5.25 11.38L5.25 10.5Z" id="b6Pxc5dHS9"></path><path d="M3.5 12.25L9.63 12.25L9.63 14L3.5 14L3.5 12.25Z" id="g26p07l3UC"></path><path d="M2.63 0.18L5.25 0.18L5.25 3.5L2.63 3.5L2.63 0.18Z" id="e1apWdfP3x"></path><path d="M10.62 1.11C11.04 1.11 11.38 1.45 11.38 1.87C11.38 2.02 11.38 1.72 11.38 1.87C11.38 2.29 11.04 2.63 10.62 2.63C9.37 2.63 6.38 2.63 5.13 2.63C4.71 2.63 4.38 2.29 4.38 1.87C4.38 1.72 4.38 2.02 4.38 1.87C4.38 1.45 4.71 1.11 5.13 1.11C6.38 1.11 9.37 1.11 10.62 1.11Z" id="aGqsa0tTW"></path></defs><g><g><g><use xlink:href="#b2Qap0k5k" opacity="1" fill="#0d0411" fill-opacity="1"></use></g><g><use xlink:href="#ai31KXqj" opacity="1" fill="#0d0411" fill-opacity="1"></use></g><g><use xlink:href="#jrefNUkUF" opacity="1" fill="#0d0411" fill-opacity="1"></use></g><g><use xlink:href="#a1o0rnMeBy" opacity="1" fill="#0d0411" fill-opacity="1"></use></g><g><use xlink:href="#a1tpSe7C4b" opacity="1" fill="#0d0411" fill-opacity="1"></use></g><g><use xlink:href="#b6Pxc5dHS9" opacity="1" fill="#0d0411" fill-opacity="1"></use></g><g><use xlink:href="#g26p07l3UC" opacity="1" fill="#0d0411" fill-opacity="1"></use></g><g><use xlink:href="#e1apWdfP3x" opacity="1" fill="#0d0411" fill-opacity="1"></use></g><g><use xlink:href="#aGqsa0tTW" opacity="1" fill="#0d0411" fill-opacity="1"></use></g></g></g></svg>