<?xml version="1.0" encoding="UTF-8" standalone="no"?>
<!DOCTYPE svg PUBLIC "-//W3C//DTD SVG 1.1//EN" "http://www.w3.org/Graphics/SVG/1.1/DTD/svg11.dtd">
<svg version="1.1" xmlns="http://www.w3.org/2000/svg" xmlns:xlink="http://www.w3.org/1999/xlink" preserveAspectRatio="xMidYMid meet" viewBox="0 0 16 16" width="16" height="16"><defs><path d="M1 5L4 5L4 6L1 6L1 5Z" id="a9tU1Dd4b"></path><path d="M4 4L7 4L7 5L4 5L4 4Z" id="b1oJ1ZGznk"></path><path d="M7 3L10 3L10 4L7 4L7 3Z" id="bfi7OY5mC"></path><path d="M10 2L12 2L12 3L10 3L10 2Z" id="a3i5O2XV49"></path><path d="M12 3L13 3L13 4L12 4L12 3Z" id="d2s2aPPUox"></path><path d="M13 4L14 4L14 5L13 5L13 4Z" id="b2fjxtUhNx"></path><path d="M14 5L15 5L15 6L14 6L14 5Z" id="faxhZ2mHT"></path><path d="M15 6L16 6L16 10L15 10L15 6Z" id="eSlucxoKi"></path><path d="M0 6L1 6L1 11L0 11L0 6Z" id="d2idzLCMLt"></path><path d="M1 11L2 11L2 12L1 12L1 11Z" id="ccHis09dY"></path><path d="M2 12L3 12L3 13L2 13L2 12Z" id="b1Ov0I8Cuz"></path><path d="M3 13L6 13L6 14L3 14L3 13Z" id="e6oriYClLs"></path><path d="M6 12L9 12L9 13L6 13L6 12Z" id="b7irteuAxs"></path><path d="M9 11L12 11L12 12L9 12L9 11Z" id="aIfyesHWQ"></path><path d="M12 10L15 10L15 11L12 11L12 10Z" id="b1nXQNPJ0v"></path><path d="M1 6L2 6L2 7L1 7L1 6Z" id="g7kb4gjQfm"></path><path d="M2 7L3 7L3 8L2 8L2 7Z" id="d2Xh7qa8GF"></path><path d="M3 8L4 8L4 9L3 9L3 8Z" id="cZJuwT3Dj"></path><path d="M4 9L5 9L5 13L4 13L4 9Z" id="a14yQ0cTBn"></path><path d="M5 8L8 8L8 9L5 9L5 8Z" id="b1pv7sy38Q"></path><path d="M8 7L11 7L11 8L8 8L8 7Z" id="aESpVhsBz"></path><path d="M11 6L14 6L14 7L11 7L11 6Z" id="d89aUkifC"></path></defs><g><g><g><use xlink:href="#a9tU1Dd4b" opacity="1" fill="#000000" fill-opacity="1"></use></g><g><use xlink:href="#b1oJ1ZGznk" opacity="1" fill="#04020f" fill-opacity="1"></use></g><g><use xlink:href="#bfi7OY5mC" opacity="1" fill="#000000" fill-opacity="1"></use></g><g><use xlink:href="#a3i5O2XV49" opacity="1" fill="#050409" fill-opacity="1"></use></g><g><use xlink:href="#d2s2aPPUox" opacity="1" fill="#050409" fill-opacity="1"></use></g><g><use xlink:href="#b2fjxtUhNx" opacity="1" fill="#050409" fill-opacity="1"></use></g><g><use xlink:href="#faxhZ2mHT" opacity="1" fill="#050409" fill-opacity="1"></use></g><g><use xlink:href="#eSlucxoKi" opacity="1" fill="#050409" fill-opacity="1"></use></g><g><use xlink:href="#d2idzLCMLt" opacity="1" fill="#050409" fill-opacity="1"></use></g><g><use xlink:href="#ccHis09dY" opacity="1" fill="#050409" fill-opacity="1"></use></g><g><use xlink:href="#b1Ov0I8Cuz" opacity="1" fill="#050409" fill-opacity="1"></use></g><g><use xlink:href="#e6oriYClLs" opacity="1" fill="#050409" fill-opacity="1"></use></g><g><use xlink:href="#b7irteuAxs" opacity="1" fill="#050409" fill-opacity="1"></use></g><g><use xlink:href="#aIfyesHWQ" opacity="1" fill="#050409" fill-opacity="1"></use></g><g><use xlink:href="#b1nXQNPJ0v" opacity="1" fill="#050409" fill-opacity="1"></use></g><g><use xlink:href="#g7kb4gjQfm" opacity="1" fill="#000000" fill-opacity="1"></use></g><g><use xlink:href="#d2Xh7qa8GF" opacity="1" fill="#050409" fill-opacity="1"></use></g><g><use xlink:href="#cZJuwT3Dj" opacity="1" fill="#050409" fill-opacity="1"></use></g><g><use xlink:href="#a14yQ0cTBn" opacity="1" fill="#050409" fill-opacity="1"></use></g><g><use xlink:href="#b1pv7sy38Q" opacity="1" fill="#050409" fill-opacity="1"></use></g><g><use xlink:href="#aESpVhsBz" opacity="1" fill="#050409" fill-opacity="1"></use></g><g><use xlink:href="#d89aUkifC" opacity="1" fill="#050409" fill-opacity="1"></use></g></g></g></svg>